<?xml version="1.0" encoding="utf-8"?>
<!-- Generator: Adobe Illustrator 23.1.1, SVG Export Plug-In . SVG Version: 6.00 Build 0)  -->
<svg version="1.1" id="Layer_1" xmlns="http://www.w3.org/2000/svg" xmlns:xlink="http://www.w3.org/1999/xlink" x="0px" y="0px"
	 viewBox="0 0 1112 352" style="enable-background:new 0 0 1112 352;" xml:space="preserve">
<style type="text/css">
	.st0{fill:none;stroke:#000000;stroke-width:7;stroke-miterlimit:10;}
	.st1{fill:#97D2E1;}
	.st2{fill:#7893CE;}
	.st3{fill:#2F4680;}
	.st4{fill:#51A1DA;}
	.st5{fill:#FFFFFF;}
	.st6{fill:#B8D1FF;}
	.st7{fill:none;stroke:#FFFFFF;stroke-width:20;stroke-miterlimit:10;}
	.st8{fill:none;stroke:#51A1DA;stroke-width:20;stroke-miterlimit:10;}
	.st9{fill:none;stroke:#FFFFFF;stroke-width:15;stroke-miterlimit:10;}
	.st10{fill:none;stroke:#97D2E1;stroke-width:20;stroke-miterlimit:10;}
</style>
<g color="green">
	<g color="green">
		<path d="M383.92,102.38c0.14-31.82,25.42-54.35,59.97-54.2c34.94,0.15,59.63,22.9,59.5,54.72c-0.14,32.01-25.03,54.74-59.97,54.59
			C408.86,157.34,383.78,134.4,383.92,102.38z M465.9,102.74c0.07-16.01-9.46-25.03-22.15-25.08c-12.49-0.05-22.29,8.88-22.36,24.89
			c-0.07,16.2,9.65,25.42,22.14,25.47C456.23,128.07,465.83,118.94,465.9,102.74z"/>
		<path d="M609.55,48.88l-0.14,33.38c-3.32-0.41-10.86-0.63-13.6-0.64c-15.03-0.06-25.41,7.5-25.49,26.05l-0.21,48.61l-37.09-0.16
			l0.46-105.8l35.33,0.15l-0.05,12.69C576.41,53.62,593.93,48.82,609.55,48.88z"/>
		<path d="M643.1,17.44c0.04-10.04,7.32-17.76,18.33-17.71c11.02,0.05,18.23,7.3,18.18,17.34c-0.05,10.57-7.32,18.29-18.34,18.24
			C650.26,35.26,643.05,27.48,643.1,17.44z M642.66,50.76l37.09,0.16l-0.46,105.8l-37.09-0.16L642.66,50.76z"/>
		<path d="M830.25,51.56l-0.37,86.47c-0.17,40.02-22.9,58.85-62.33,58.68c-20.3-0.09-39.61-4.86-52.45-14.09l13.58-25.9
			c8.75,7.07,23.18,11.42,35.67,11.48c19.91,0.09,28.34-8.86,28.42-25.45l0.02-3.52c-7.26,8.36-18.01,12.42-31.48,12.36
			c-28.11-0.12-51.84-20.13-51.7-51.36c0.13-31.04,24.03-50.84,52.14-50.72c14.64,0.06,25.94,4.8,33.12,14.78l0.06-12.88
			L830.25,51.56z M793.34,100.59c0.06-12.88-9.67-21.52-22.94-21.57c-13.28-0.06-23.27,8.49-23.32,21.37
			c-0.06,12.88,9.86,21.71,23.14,21.77C783.49,122.22,793.29,113.47,793.34,100.59z"/>
		<path d="M971.44,114.43l-76.91-0.33c3.08,10.75,12.22,17.03,25.89,17.09c10.35,0.04,17.19-2.85,24.44-9.07l19.43,20.39
			c-10.2,11.28-25.06,17.07-45.17,16.98c-37.67-0.16-61.97-23.5-61.84-55.12c0.14-31.82,25.02-54.35,58.4-54.21
			c31.23,0.13,56.52,20.15,56.37,55.1C972.05,107.99,971.65,111.5,971.44,114.43z M894.03,94.57l43.33,0.19
			c-1.9-11.13-10.07-18.2-21.59-18.25C904.26,76.46,896.23,83.46,894.03,94.57z"/>
		<path d="M1112,98.05l-0.26,60.51l-37.09-0.16l0.23-54.46c0.07-15.23-6.54-21.69-17.28-21.74c-11.91-0.05-21.11,7.33-21.19,24.89
			l-0.22,51.14l-37.09-0.16l0.46-105.8l35.33,0.15l-0.05,11.52c8.43-8.75,20.36-13.19,33.63-13.13
			C1093.27,50.93,1112.14,65.26,1112,98.05z"/>
		<path d="M384.9,271.57c0.14-31.82,25.41-54.35,60.94-54.2c24.01,0.1,42.31,10.92,49.46,29.3l-28.76,14.52
			c-5.03-9.98-12.43-14.3-21.02-14.34c-12.88-0.06-23.07,8.88-23.14,24.89c-0.07,16.4,10.04,25.42,22.92,25.48
			c8.59,0.04,16.02-4.23,21.14-14.16l28.63,14.76c-7.3,18.32-25.7,28.98-49.71,28.87C409.84,326.53,384.76,303.78,384.9,271.57z"/>
		<path d="M631.53,266.95l-0.25,58.76l-34.55-0.15l0.06-13.66c-5.31,10.13-15.88,15.35-31.3,15.29
			c-25.38-0.11-39.37-14.42-39.29-32.77c0.08-19.52,14.39-31.56,47.18-31.42l21.08,0.09c-0.54-10.74-7.74-16.82-22.38-16.89
			c-10.15-0.04-21.49,3.42-28.73,9.05l-12.38-25.24c12.14-7.95,30.11-12.17,46.71-12.1C612.03,218.07,631.68,233.38,631.53,266.95z
			 M594.34,291.58l0.04-9.17l-16.01-0.07c-11.91-0.05-16.22,4.22-16.25,10.66c-0.03,6.25,5.03,10.76,13.81,10.8
			C584.14,303.84,591.37,299.96,594.34,291.58z"/>
		<path d="M746.53,218.64l-0.14,33.38c-3.32-0.41-10.86-0.63-13.6-0.64c-15.03-0.06-25.41,7.5-25.49,26.05l-0.21,48.61L670,325.86
			l0.46-105.8l35.33,0.15l-0.05,12.69C713.39,223.37,730.91,218.57,746.53,218.64z"/>
		<path d="M883.35,283.23l-76.91-0.33c3.08,10.75,12.22,17.03,25.89,17.09c10.35,0.04,17.19-2.85,24.44-9.07l19.43,20.39
			c-10.2,11.28-25.06,17.07-45.17,16.98c-37.67-0.16-61.97-23.5-61.84-55.12c0.14-31.82,25.02-54.35,58.4-54.21
			c31.23,0.13,56.52,20.15,56.37,55.1C883.97,276.79,883.56,280.3,883.35,283.23z M805.94,263.38l43.33,0.19
			c-1.9-11.13-10.07-18.2-21.59-18.25C816.17,245.27,808.14,252.26,805.94,263.38z"/>
		<path d="M905.27,317.67l11.24-25.33c9.73,6.09,23.97,9.86,36.85,9.92c12.49,0.05,16.6-2.66,16.62-7.15
			c0.06-14.25-62.47,1.68-62.29-40.68c0.09-19.91,18.5-35.06,51.68-34.91c14.84,0.06,31.22,3.26,41.74,9.16l-11.23,25.13
			c-10.52-5.9-21.05-7.9-30.42-7.94c-12.49-0.05-17,3.44-17.01,7.35c-0.06,14.64,62.27-0.9,62.09,41.06
			c-0.08,19.52-18.11,34.67-52.46,34.52C934.11,328.73,915.58,324.16,905.27,317.67z"/>
	</g>
	<g color="green">
		<g color="green">
			<path d="M310.55,89.82c-24.93-37.69-63.04-63.43-107.31-72.46c-44.27-9.06-89.43-0.29-127.12,24.62
				C-0.77,92.79-22.66,196.04,26.41,273.56l11.53-29.13l27.3-7.73c-26.99-52.42-10.7-118.04,39.59-151.3
				c26.08-17.23,57.34-23.3,88-17.05c30.66,6.27,57.03,24.08,74.28,50.18c35.61,53.88,20.74,126.68-33.13,162.28
				c-40.76,26.96-92.35,25.01-130.48-0.89l-26.63,7.55l-11.5,29.07c30.01,23.35,66.92,35.68,104.29,35.68
				c32.01,0,64.37-9.03,93.02-27.98C340.51,272.83,361.99,167.65,310.55,89.82z"/>
		</g>
	</g>
	<circle cx="170.15" cy="182.8" r="59.21"/>
</g>
</svg>
