<?xml version="1.0" encoding="UTF-8"?>
<svg width="1112px" height="354px" viewBox="0 0 1112 354" version="1.1" xmlns="http://www.w3.org/2000/svg" xmlns:xlink="http://www.w3.org/1999/xlink">
    <title>origencares-logo-black</title>
    <g id="Page-1" stroke="none" stroke-width="1" fill="none" fill-rule="evenodd">
        <g id="origencares-logo-black-2" fill="#FFFFFF" fill-rule="nonzero">
            <g id="origencares-logo-black">
                <g id="Group" transform="translate(383.000000, 0.000000)">
                    <path d="M0.919416792,103.38 C1.06,71.56 26.34,49.03 60.89,49.1792555 C95.83,49.33 120.52,72.08 120.390511,103.9 C120.25,135.91 95.36,158.64 60.42,158.490738 C25.86,158.34 0.78,135.4 0.919416792,103.38 Z M82.9003831,103.74 C82.97,87.73 73.44,78.71 60.75,78.6597912 C48.26,78.61 38.46,87.54 38.3896243,103.55 C38.32,119.75 48.04,128.97 60.53,129.020204 C73.23,129.07 82.83,119.94 82.9003831,103.74 Z" id="Shape"></path>
                    <path d="M226.55,49.8794444 L226.41,83.26 C223.09,82.85 215.55,82.63 212.81,82.62 C197.78,82.56 187.4,90.12 187.32,108.67 L187.11,157.28 L150.02,157.12 L150.48,51.32 L185.81,51.47 L185.76,64.16 C193.41,54.62 210.93,49.82 226.55,49.8794444 Z" id="Path"></path>
                    <path d="M260.099742,18.44 C260.14,8.4 267.42,0.68 278.43,0.729758505 C289.45,0.78 296.66,8.03 296.610258,18.07 C296.56,28.64 289.29,36.36 278.27,36.3102415 C267.26,36.26 260.05,28.48 260.099742,18.44 Z M259.66,51.76 L296.75,51.92 L296.29,157.72 L259.2,157.56 L259.66,51.76 Z" id="Shape"></path>
                    <path d="M447.25,52.56 L446.88,139.03 C446.71,179.05 423.98,197.88 384.55,197.711141 C364.25,197.62 344.94,192.85 332.1,183.62 L345.68,157.72 C354.43,164.79 368.86,169.14 381.35,169.2 C401.26,169.29 409.69,160.34 409.77,143.75 L409.79,140.23 C402.53,148.59 391.78,152.65 378.31,152.59 C350.2,152.47 326.47,132.46 326.609384,101.23 C326.74,70.19 350.64,50.39 378.75,50.5094576 C393.39,50.57 404.69,55.31 411.87,65.29 L411.93,52.41 L447.25,52.56 Z M410.340276,101.59 C410.4,88.71 400.67,80.07 387.4,80.0196862 C374.12,79.96 364.13,88.51 364.079729,101.39 C364.02,114.27 373.94,123.1 387.22,123.160307 C400.49,123.22 410.29,114.47 410.340276,101.59 Z" id="Shape"></path>
                    <path d="M588.44,115.43 L511.53,115.1 C514.61,125.85 523.75,132.13 537.42,132.19 C547.77,132.23 554.61,129.34 561.86,123.12 L581.29,143.51 C571.09,154.79 556.23,160.58 536.12,160.491033 C498.45,160.33 474.15,136.99 474.279481,105.37 C474.42,73.55 499.3,51.02 532.68,51.1593512 C563.91,51.29 589.2,71.31 589.050664,106.26 C589.050664,108.99 588.65,112.5 588.44,115.43 Z M511.03,95.57 L554.36,95.76 C552.46,84.63 544.29,77.56 532.77,77.51 C521.26,77.46 513.23,84.46 511.03,95.57 Z" id="Shape"></path>
                    <path d="M729.000774,99.05 L728.74,159.56 L691.65,159.4 L691.88,104.94 C691.95,89.71 685.34,83.25 674.6,83.2 C662.69,83.15 653.49,90.53 653.41,108.09 L653.19,159.23 L616.1,159.07 L616.56,53.27 L651.89,53.42 L651.84,64.94 C660.27,56.19 672.2,51.75 685.47,51.8093999 C710.27,51.93 729.14,66.26 729.000774,99.05 Z" id="Path"></path>
                    <path d="M1.89941681,272.57 C2.04,240.75 27.31,218.22 62.84,218.369255 C86.85,218.47 105.15,229.29 112.3,247.67 L83.54,262.19 C78.51,252.21 71.11,247.89 62.52,247.85 C49.64,247.79 39.45,256.73 39.38,272.74 C39.31,289.14 49.42,298.16 62.3,298.22 C70.89,298.26 78.32,293.99 83.44,284.06 L112.07,298.82 C104.77,317.14 86.37,327.8 62.36,327.690843 C26.84,327.53 1.76,304.78 1.89941681,272.57 Z" id="Path"></path>
                    <path d="M248.530853,267.95 L248.28,326.71 L213.73,326.56 L213.79,312.9 C208.48,323.03 197.91,328.25 182.49,328.190511 C157.11,328.08 143.12,313.77 143.199659,295.42 C143.28,275.9 157.59,263.86 190.38,264 L211.46,264.09 C210.92,253.35 203.72,247.27 189.08,247.2 C178.93,247.16 167.59,250.62 160.35,256.25 L147.97,231.01 C160.11,223.06 178.08,218.84 194.68,218.909143 C229.03,219.07 248.68,234.38 248.530853,267.95 Z M211.34,292.58 L211.38,283.41 L195.37,283.34 C183.46,283.29 179.15,287.56 179.119867,294 C179.09,300.25 184.15,304.76 192.93,304.8 C201.14,304.84 208.37,300.96 211.34,292.58 Z" id="Shape"></path>
                    <path d="M363.53,219.639245 L363.39,253.02 C360.07,252.61 352.53,252.39 349.79,252.38 C334.76,252.32 324.38,259.88 324.3,278.43 L324.09,327.04 L287,326.86 L287.46,221.06 L322.79,221.21 L322.74,233.9 C330.39,224.37 347.91,219.57 363.53,219.639245 Z" id="Path"></path>
                    <path d="M500.35,284.23 L423.44,283.9 C426.52,294.65 435.66,300.93 449.33,300.99 C459.68,301.03 466.52,298.14 473.77,291.92 L493.2,312.31 C483,323.59 468.14,329.38 448.03,329.291033 C410.36,329.13 386.06,305.79 386.189481,274.17 C386.33,242.35 411.21,219.82 444.59,219.959351 C475.82,220.09 501.11,240.11 500.960664,275.06 C500.97,277.79 500.56,281.3 500.35,284.23 Z M422.94,264.38 L466.27,264.57 C464.37,253.44 456.2,246.37 444.68,246.32 C433.17,246.27 425.14,253.26 422.94,264.38 Z" id="Shape"></path>
                    <path d="M522.27,318.67 L533.51,293.34 C543.24,299.43 557.48,303.2 570.36,303.26 C582.85,303.31 586.96,300.6 586.98,296.11 C587.04,281.86 524.51,297.79 524.69,255.43 C524.78,235.52 543.19,220.37 576.37,220.52 C591.21,220.58 607.59,223.78 618.11,229.68 L606.88,254.81 C596.36,248.91 585.83,246.91 576.46,246.87 C563.97,246.82 559.46,250.31 559.45,254.22 C559.39,268.86 621.72,253.32 621.540389,295.28 C621.46,314.8 603.43,329.95 569.08,329.8 C551.11,329.73 532.58,325.16 522.27,318.67 Z" id="Path"></path>
                </g>
                <path d="M310.55,90.82 C285.62,53.13 247.51,27.39 203.24,18.36 C158.97,9.3 113.81,18.07 76.12,42.98 C-0.77,93.79 -22.66,197.04 26.41,274.56 L37.94,245.43 L65.24,237.7 C38.25,185.28 54.54,119.66 104.83,86.4 C130.91,69.17 162.17,63.1 192.83,69.35 C223.49,75.62 249.86,93.43 267.11,119.53 C302.72,173.41 287.85,246.21 233.98,281.81 C193.22,308.77 141.63,306.82 103.5,280.92 L76.87,288.47 L65.37,317.54 C95.38,340.89 132.29,353.22 169.66,353.22 C201.67,353.22 234.03,344.19 262.68,325.24 C340.51,273.83 361.99,168.65 310.55,90.82 Z" id="Path"></path>
                <circle id="Oval" cx="170.15" cy="183.8" r="59.21"></circle>
            </g>
        </g>
    </g>
</svg>